PathFileType	4	(X/Y/Z)	Run_500 02
DataRate	CameraRate	NumFrames	NumMarkers	Units	OrigDataRate	OrigDataStartFrame	OrigNumFrames
100	100	4	42	mm	100	184	128
Frame#	Time	LASI			RASI			LPSI			RPSI			RTH1			RTH2			RTH3			LTH1			LTH2			LTH3			RTB1			RTB2			RTB3			LTB1			LTB2			LTB3			RCAL			RTOE			RMT5			LCAL			LTOE			LMT5			LACR			RACR			CLAV			C7			RUA1			RUA2			RUA3			RLEL			RMEL			LUA1			LUA2			LUA3			LLEL			LMEL			RFAsuperior			RFAradius			RFAulna			LFAsuperior			LFAradius			LFAulna			
		X1	Y1	Z1	X2	Y2	Z2	X3	Y3	Z3	X4	Y4	Z4	X5	Y5	Z5	X6	Y6	Z6	X7	Y7	Z7	X8	Y8	Z8	X9	Y9	Z9	X10	Y10	Z10	X11	Y11	Z11	X12	Y12	Z12	X13	Y13	Z13	X14	Y14	Z14	X15	Y15	Z15	X16	Y16	Z16	X17	Y17	Z17	X18	Y18	Z18	X19	Y19	Z19	X20	Y20	Z20	X21	Y21	Z21	X22	Y22	Z22	X23	Y23	Z23	X24	Y24	Z24	X25	Y25	Z25	X26	Y26	Z26	X27	Y27	Z27	X28	Y28	Z28	X29	Y29	Z29	X30	Y30	Z30	X31	Y31	Z31	X32	Y32	Z32	X33	Y33	Z33	X34	Y34	Z34	X35	Y35	Z35	X36	Y36	Z36	X37	Y37	Z37	X38	Y38	Z38	X39	Y39	Z39	X40	Y40	Z40	X41	Y41	Z41	X42	Y42	Z42	

182	3.86	832.272503	957.0817929999999	-457.606298	848.202945	971.442299	-215.631004	681.132215	1019.401842	-373.562894	679.736195	1012.416799	-274.041283	865.721389	747.342878	-147.12632	963.157644	706.286788	-163.162896	960.436322	600.975401	-190.858453	733.445727	762.778626	-495.721886	748.306888	644.48594	-488.5581	652.582871	566.21028	-472.958071	1072.455726	423.289694	-263.43756	1051.010562	335.044294	-225.875017	1098.365527	239.692681	-296.007568	523.472406	426.735555	-411.628864	486.240412	432.66688	-467.66662	329.177027	443.516398	-400.589221	1033.471003	107.33763	-331.933996	1244.773657	175.902368	-340.628436	1219.41928	107.760086	-251.181936	250.320053	541.22582	-389.628633	130.723742	360.542007	-350.400323	100.125653	412.824159	-439.220778	874.514201	1442.064568	-465.937758	844.258437	1438.470591	-182.205337	927.885485	1353.994059	-298.258907	826.539494	1479.568267	-330.853661	732.622569	1400.041968	-100.527917	662.833836	1389.057135	-161.939882	626.1626230000001	1339.851812	-90.185709	554.079267	1309.282434	-80.387871	544.523175	1298.898225	-157.742182	848.81664	1342.448506	-575.147305	793.246587	1278.214046	-574.789203	858.667775	1250.950051	-627.465097	856.301386	1170.087657	-670.513912	810.248886	1132.889284	-619.68658	619.315011	1215.489873	-60.834481	711.884594	1121.975007	-106.646764	651.558493	1087.360179	-97.322107	946.732173	1189.825155	-593.607492	1001.327332	1179.338589	-464.5632	1045.072883	1139.763088	-501.307616	
183	3.87	837.436249	950.9703019999999	-456.436855	849.491806	966.721316	-213.49494	684.9391000000001	1010.836756	-377.24557	681.865119	1005.044848	-277.665717	864.718337	740.523364	-149.182999	959.077712	695.105912	-165.259506	951.563796	588.680399	-193.522241	742.33521	755.123297	-498.040095	761.941864	637.920335	-493.205546	670.199584	556.559378	-477.773578	1055.064579	403.50518	-265.81633	1029.334374	320.663468	-229.126494	1070.298356	218.907073	-299.1026	543.568832	423.465704	-417.585738	514.447421	432.055169	-469.105002	351.520391	456.507982	-404.133773	997.38391	98.551117	-335.430278	1211.645174	142.073728	-347.085408	1181.327483	78.91527600000001	-255.866475	279.305968	559.56619	-389.723744	147.816309	386.746171	-356.107629	122.39209	442.30806	-444.321945	872.780559	1436.873188	-466.470196	844.3136019999999	1432.143547	-181.661628	928.124184	1349.176458	-299.216381	824.622031	1473.374431	-329.714779	735.096446	1389.763234	-97.89438699999999	662.555716	1377.406505	-155.547217	630.1270019999999	1325.696381	-83.31037000000001	560.188709	1292.577386	-71.946057	548.471267	1282.864078	-149.170981	841.8821809999999	1338.322781	-575.556187	784.659158	1275.767407	-574.358927	848.290678	1246.952425	-629.318656	841.673288	1166.904659	-671.682446	794.8976699999999	1131.306499	-620.322547	630.000463	1201.96352	-54.730736	725.778594	1113.246459	-104.762622	666.705283	1076.492469	-94.079386	934.895042	1179.156616	-596.145006	993.262911	1159.74052	-471.121943	1032.819959	1118.726279	-510.601388	
184	3.88	842.489135	943.540303	-455.092891	850.286752	961.436829	-211.752574	688.464331	1001.186982	-380.86419	683.264405	997.283153	-281.124795	861.280537	730.967035	-149.976213	952.651721	680.893786	-165.963912	941.251514	575.290692	-194.882962	752.281457	746.51822	-500.035131	776.872497	630.739522	-496.930471	689.4756630000001	546.494972	-482.642443	1039.05038	387.141369	-268.731674	1007.784181	309.50659	-232.008008	1043.88633	202.605377	-305.185458	566.269897	419.056605	-423.516121	544.235058	431.708547	-470.168662	377.407941	466.992646	-406.91062	961.966436	96.775796	-342.079786	1178.188646	109.44365	-355.754157	1141.687036	57.175637	-261.404905	310.84991	574.055786	-390.785262	170.084284	408.59171	-360.112914	149.425808	465.074327	-448.50369	870.562668	1431.411898	-467.117493	844.734329	1425.201609	-180.917344	928.643695	1343.641062	-300.69288	822.2560089999999	1466.223709	-328.759243	738.162676	1377.987025	-95.068658	662.785047	1363.612601	-148.34371	635.337233	1309.701363	-75.97264199999999	567.76793	1274.48928	-62.66692	553.555658	1264.905811	-139.392348	834.061341	1333.729657	-575.809248	775.571421	1272.838797	-573.562447	837.226243	1242.722667	-630.56391	826.195523	1163.886774	-672.635908	779.293578	1129.770612	-620.936912	641.5866600000001	1186.809813	-47.674494	740.323768	1103.450001	-102.518227	683.18161	1063.989375	-90.333962	922.243479	1168.357464	-599.992481	985.232293	1138.684049	-478.1404	1018.782694	1097.564693	-521.563114	
185	3.89	846.856861	935.373532	-453.40167	849.052861	956.200864	-210.31863	690.57444	991.264871	-384.026635	682.4552650000001	990.4263529999999	-283.763309	854.483398	721.136561	-149.691282	945.3094610000001	669.139528	-164.622339	932.563392	565.795244	-193.958119	763.650658	737.960684	-501.158332	793.038982	623.467885	-499.671759	710.708573	536.233395	-486.814375	1025.342499	378.100045	-272.986319	987.049347	302.272484	-234.399867	1018.548279	194.388343	-314.4761	592.165498	413.866933	-428.629019	575.205879	431.928363	-470.860918	406.315503	474.207895	-408.714107	925.690439	100.194531	-351.579284	1143.489909	84.93487500000001	-364.684688	1100.469148	46.637527	-266.897396	344.949129	584.194387	-392.573392	196.431094	425.282412	-363.17613	180.048396	481.559712	-452.276153	867.6930609999999	1426.196412	-468.215833	845.906673	1418.190665	-179.870508	929.593217	1337.772551	-302.568701	820.015574	1459.21207	-327.71079	742.134421	1365.047316	-91.85915199999999	664.330951	1348.112334	-140.53118	642.468604	1292.029412	-68.38378400000001	577.194011	1255.293372	-52.853028	560.168912	1245.315096	-128.723134	825.421234	1328.953697	-575.787092	766.146485	1269.756999	-572.272264	825.483691	1238.47813	-631.121841	809.870145	1161.168781	-673.234456	763.323846	1128.478627	-621.226897	654.440551	1170.063343	-40.2589	755.584821	1092.692748	-100.473324	700.780962	1050.099268	-86.61586699999999	908.654558	1157.650079	-604.538984	975.798545	1116.712299	-486.157805	1002.907972	1077.641571	-533.618503	
